<mxfile host="app.diagrams.net" modified="2024-07-07T08:44:19.787Z" agent="Mozilla/5.0 (X11; Linux x86_64; rv:127.0) Gecko/20100101 Firefox/127.0" etag="fqTApWNl7Moaf6_aJpnn" version="24.5.5" type="device">
  <diagram name="Page-1" id="AmWRJgyGzTnkkpJVR9lQ">
    <mxGraphModel dx="753" dy="410" grid="1" gridSize="10" guides="1" tooltips="1" connect="1" arrows="1" fold="1" page="1" pageScale="1" pageWidth="850" pageHeight="1100" math="0" shadow="0">
      <root>
        <mxCell id="0" />
        <mxCell id="1" parent="0" />
        <mxCell id="chOfGkjkV9inJ0dJJ7lT-2" value="START" style="strokeWidth=2;html=1;shape=mxgraph.flowchart.start_1;whiteSpace=wrap;" vertex="1" parent="1">
          <mxGeometry x="460" y="40" width="100" height="60" as="geometry" />
        </mxCell>
        <mxCell id="chOfGkjkV9inJ0dJJ7lT-36" style="edgeStyle=orthogonalEdgeStyle;rounded=0;orthogonalLoop=1;jettySize=auto;html=1;entryX=0.5;entryY=0;entryDx=0;entryDy=0;" edge="1" parent="1" source="chOfGkjkV9inJ0dJJ7lT-3" target="chOfGkjkV9inJ0dJJ7lT-32">
          <mxGeometry relative="1" as="geometry" />
        </mxCell>
        <mxCell id="chOfGkjkV9inJ0dJJ7lT-3" value="User Interface" style="strokeWidth=2;html=1;shape=mxgraph.flowchart.display;whiteSpace=wrap;" vertex="1" parent="1">
          <mxGeometry x="460" y="130" width="100" height="60" as="geometry" />
        </mxCell>
        <mxCell id="chOfGkjkV9inJ0dJJ7lT-5" value="" style="rounded=0;whiteSpace=wrap;html=1;" vertex="1" parent="1">
          <mxGeometry x="40" y="40" width="320" height="200" as="geometry" />
        </mxCell>
        <mxCell id="chOfGkjkV9inJ0dJJ7lT-7" value="Text Field / Image Display" style="rounded=0;whiteSpace=wrap;html=1;" vertex="1" parent="1">
          <mxGeometry x="50" y="50" width="300" height="120" as="geometry" />
        </mxCell>
        <mxCell id="chOfGkjkV9inJ0dJJ7lT-8" value="" style="rounded=0;whiteSpace=wrap;html=1;" vertex="1" parent="1">
          <mxGeometry x="50" y="180" width="240" height="50" as="geometry" />
        </mxCell>
        <mxCell id="chOfGkjkV9inJ0dJJ7lT-9" value="Go" style="rounded=0;whiteSpace=wrap;html=1;" vertex="1" parent="1">
          <mxGeometry x="300" y="180" width="50" height="50" as="geometry" />
        </mxCell>
        <mxCell id="chOfGkjkV9inJ0dJJ7lT-10" value="Could upload files like images and markup files" style="text;html=1;align=center;verticalAlign=middle;whiteSpace=wrap;rounded=0;fontSize=9;" vertex="1" parent="1">
          <mxGeometry x="60" y="155" width="190" height="10" as="geometry" />
        </mxCell>
        <mxCell id="chOfGkjkV9inJ0dJJ7lT-11" value="x" style="rounded=0;whiteSpace=wrap;html=1;" vertex="1" parent="1">
          <mxGeometry x="340" y="50" width="10" height="10" as="geometry" />
        </mxCell>
        <mxCell id="chOfGkjkV9inJ0dJJ7lT-12" value="Input Field" style="text;html=1;align=center;verticalAlign=middle;whiteSpace=wrap;rounded=0;" vertex="1" parent="1">
          <mxGeometry x="50" y="50" width="60" height="20" as="geometry" />
        </mxCell>
        <mxCell id="chOfGkjkV9inJ0dJJ7lT-13" value="Output Field" style="text;html=1;align=center;verticalAlign=middle;whiteSpace=wrap;rounded=0;" vertex="1" parent="1">
          <mxGeometry x="50" y="180" width="70" height="20" as="geometry" />
        </mxCell>
        <mxCell id="chOfGkjkV9inJ0dJJ7lT-14" value="Generated output based on the input text" style="text;html=1;align=center;verticalAlign=middle;whiteSpace=wrap;rounded=0;fontSize=9;" vertex="1" parent="1">
          <mxGeometry x="60" y="210" width="170" height="10" as="geometry" />
        </mxCell>
        <mxCell id="chOfGkjkV9inJ0dJJ7lT-15" value="&lt;font style=&quot;font-size: 7px;&quot;&gt;tbldsc&lt;/font&gt;" style="rounded=0;whiteSpace=wrap;html=1;" vertex="1" parent="1">
          <mxGeometry x="40" y="30" width="320" height="10" as="geometry" />
        </mxCell>
        <mxCell id="chOfGkjkV9inJ0dJJ7lT-16" value="x" style="rounded=0;whiteSpace=wrap;html=1;" vertex="1" parent="1">
          <mxGeometry x="350" y="30" width="10" height="10" as="geometry" />
        </mxCell>
        <mxCell id="chOfGkjkV9inJ0dJJ7lT-17" value="" style="rounded=0;whiteSpace=wrap;html=1;" vertex="1" parent="1">
          <mxGeometry x="40" y="30" width="10" height="10" as="geometry" />
        </mxCell>
        <mxCell id="chOfGkjkV9inJ0dJJ7lT-20" value="" style="endArrow=none;dashed=1;html=1;dashPattern=1 3;strokeWidth=2;rounded=0;entryX=0;entryY=0.5;entryDx=0;entryDy=0;entryPerimeter=0;exitX=1;exitY=0.5;exitDx=0;exitDy=0;" edge="1" parent="1" source="chOfGkjkV9inJ0dJJ7lT-5" target="chOfGkjkV9inJ0dJJ7lT-3">
          <mxGeometry width="50" height="50" relative="1" as="geometry">
            <mxPoint x="300" y="140" as="sourcePoint" />
            <mxPoint x="350" y="90" as="targetPoint" />
          </mxGeometry>
        </mxCell>
        <mxCell id="chOfGkjkV9inJ0dJJ7lT-23" style="edgeStyle=orthogonalEdgeStyle;rounded=0;orthogonalLoop=1;jettySize=auto;html=1;entryX=0.5;entryY=0;entryDx=0;entryDy=0;entryPerimeter=0;" edge="1" parent="1" source="chOfGkjkV9inJ0dJJ7lT-2" target="chOfGkjkV9inJ0dJJ7lT-3">
          <mxGeometry relative="1" as="geometry" />
        </mxCell>
        <mxCell id="chOfGkjkV9inJ0dJJ7lT-38" style="edgeStyle=orthogonalEdgeStyle;rounded=0;orthogonalLoop=1;jettySize=auto;html=1;entryX=1;entryY=0.5;entryDx=0;entryDy=0;" edge="1" parent="1" source="chOfGkjkV9inJ0dJJ7lT-25" target="chOfGkjkV9inJ0dJJ7lT-37">
          <mxGeometry relative="1" as="geometry" />
        </mxCell>
        <mxCell id="chOfGkjkV9inJ0dJJ7lT-25" value="&lt;div&gt;Some&lt;/div&gt;&lt;div&gt;AI sheet&lt;br&gt;&lt;/div&gt;" style="rounded=1;whiteSpace=wrap;html=1;absoluteArcSize=1;arcSize=14;strokeWidth=2;" vertex="1" parent="1">
          <mxGeometry x="200" y="300" width="100" height="100" as="geometry" />
        </mxCell>
        <mxCell id="chOfGkjkV9inJ0dJJ7lT-26" value="STOP" style="strokeWidth=2;html=1;shape=mxgraph.flowchart.terminator;whiteSpace=wrap;" vertex="1" parent="1">
          <mxGeometry x="630" y="130" width="100" height="60" as="geometry" />
        </mxCell>
        <mxCell id="chOfGkjkV9inJ0dJJ7lT-27" style="edgeStyle=orthogonalEdgeStyle;rounded=0;orthogonalLoop=1;jettySize=auto;html=1;entryX=0;entryY=0.5;entryDx=0;entryDy=0;entryPerimeter=0;" edge="1" parent="1" source="chOfGkjkV9inJ0dJJ7lT-3" target="chOfGkjkV9inJ0dJJ7lT-26">
          <mxGeometry relative="1" as="geometry" />
        </mxCell>
        <mxCell id="chOfGkjkV9inJ0dJJ7lT-44" style="edgeStyle=orthogonalEdgeStyle;rounded=0;orthogonalLoop=1;jettySize=auto;html=1;entryX=0;entryY=0.25;entryDx=0;entryDy=0;" edge="1" parent="1" source="chOfGkjkV9inJ0dJJ7lT-28" target="chOfGkjkV9inJ0dJJ7lT-32">
          <mxGeometry relative="1" as="geometry">
            <mxPoint x="380" y="240.00000000000006" as="targetPoint" />
            <Array as="points">
              <mxPoint x="380" y="240" />
            </Array>
          </mxGeometry>
        </mxCell>
        <mxCell id="chOfGkjkV9inJ0dJJ7lT-45" style="edgeStyle=orthogonalEdgeStyle;rounded=0;orthogonalLoop=1;jettySize=auto;html=1;entryX=1;entryY=0.5;entryDx=0;entryDy=0;" edge="1" parent="1" source="chOfGkjkV9inJ0dJJ7lT-28" target="chOfGkjkV9inJ0dJJ7lT-25">
          <mxGeometry relative="1" as="geometry" />
        </mxCell>
        <mxCell id="chOfGkjkV9inJ0dJJ7lT-28" value="&lt;div&gt;Input&lt;/div&gt;&lt;div&gt;Filled?&lt;br&gt;&lt;/div&gt;" style="strokeWidth=2;html=1;shape=mxgraph.flowchart.decision;whiteSpace=wrap;" vertex="1" parent="1">
          <mxGeometry x="330" y="300" width="100" height="100" as="geometry" />
        </mxCell>
        <mxCell id="chOfGkjkV9inJ0dJJ7lT-42" style="edgeStyle=orthogonalEdgeStyle;rounded=0;orthogonalLoop=1;jettySize=auto;html=1;" edge="1" parent="1" source="chOfGkjkV9inJ0dJJ7lT-32" target="chOfGkjkV9inJ0dJJ7lT-41">
          <mxGeometry relative="1" as="geometry" />
        </mxCell>
        <mxCell id="chOfGkjkV9inJ0dJJ7lT-32" value="&lt;div&gt;Input&lt;/div&gt;&lt;div&gt;Table&lt;br&gt;&lt;/div&gt;" style="shape=parallelogram;html=1;strokeWidth=2;perimeter=parallelogramPerimeter;whiteSpace=wrap;rounded=1;arcSize=12;size=0.23;" vertex="1" parent="1">
          <mxGeometry x="460" y="220" width="100" height="60" as="geometry" />
        </mxCell>
        <mxCell id="chOfGkjkV9inJ0dJJ7lT-37" value="&lt;div&gt;Output&lt;/div&gt;&lt;div&gt;Desciption&lt;br&gt;&lt;/div&gt;" style="shape=parallelogram;html=1;strokeWidth=2;perimeter=parallelogramPerimeter;whiteSpace=wrap;rounded=1;arcSize=12;size=0.23;" vertex="1" parent="1">
          <mxGeometry x="60" y="320" width="100" height="60" as="geometry" />
        </mxCell>
        <mxCell id="chOfGkjkV9inJ0dJJ7lT-39" value="Yes" style="text;html=1;align=center;verticalAlign=middle;whiteSpace=wrap;rounded=0;" vertex="1" parent="1">
          <mxGeometry x="290" y="320" width="60" height="30" as="geometry" />
        </mxCell>
        <mxCell id="chOfGkjkV9inJ0dJJ7lT-40" value="No" style="text;html=1;align=center;verticalAlign=middle;whiteSpace=wrap;rounded=0;" vertex="1" parent="1">
          <mxGeometry x="330" y="270" width="60" height="30" as="geometry" />
        </mxCell>
        <mxCell id="chOfGkjkV9inJ0dJJ7lT-43" style="edgeStyle=orthogonalEdgeStyle;rounded=0;orthogonalLoop=1;jettySize=auto;html=1;" edge="1" parent="1" source="chOfGkjkV9inJ0dJJ7lT-41" target="chOfGkjkV9inJ0dJJ7lT-28">
          <mxGeometry relative="1" as="geometry" />
        </mxCell>
        <mxCell id="chOfGkjkV9inJ0dJJ7lT-41" value="Press GO" style="strokeWidth=2;html=1;shape=mxgraph.flowchart.display;whiteSpace=wrap;" vertex="1" parent="1">
          <mxGeometry x="460" y="320" width="100" height="60" as="geometry" />
        </mxCell>
      </root>
    </mxGraphModel>
  </diagram>
</mxfile>
